<?xml version="1.0" encoding="UTF-8" standalone="no"?>
<!-- Created with Inkscape (http://www.inkscape.org/) -->

<svg
   width="1146.899"
   height="514.93402"
   viewBox="0 0 303.45036 136.24297"
   version="1.1"
   id="svg5"
   inkscape:export-filename="/home/lynx/bitmap.png"
   inkscape:export-xdpi="144"
   inkscape:export-ydpi="144"
   inkscape:version="1.2.2 (b0a8486541, 2022-12-01)"
   sodipodi:docname="wordmarkkk.svg"
   xmlns:inkscape="http://www.inkscape.org/namespaces/inkscape"
   xmlns:sodipodi="http://sodipodi.sourceforge.net/DTD/sodipodi-0.dtd"
   xmlns:xlink="http://www.w3.org/1999/xlink"
   xmlns="http://www.w3.org/2000/svg"
   xmlns:svg="http://www.w3.org/2000/svg">
  <sodipodi:namedview
     id="namedview7"
     pagecolor="#ffffff"
     bordercolor="#666666"
     borderopacity="1.0"
     inkscape:pageshadow="2"
     inkscape:pageopacity="0"
     inkscape:pagecheckerboard="0"
     inkscape:document-units="px"
     showgrid="false"
     units="px"
     width="2000px"
     fit-margin-top="0"
     fit-margin-left="0"
     fit-margin-right="0"
     fit-margin-bottom="0"
     inkscape:zoom="0.80940613"
     inkscape:cx="593.64512"
     inkscape:cy="221.1498"
     inkscape:window-width="1920"
     inkscape:window-height="1003"
     inkscape:window-x="0"
     inkscape:window-y="0"
     inkscape:window-maximized="1"
     inkscape:current-layer="layer2"
     inkscape:showpageshadow="0"
     inkscape:deskcolor="#d1d1d1" />
  <defs
     id="defs2">
    <color-profile
       name="Apple-RGB"
       xlink:href="file:///usr/share/color/icc/colord/AppleRGB.icc"
       id="color-profile1028" />
    <color-profile
       name="Apple-RGB"
       xlink:href="file:///usr/share/color/icc/colord/AppleRGB.icc"
       id="color-profile1030" />
    <rect
       x="373.25632"
       y="670.42023"
       width="1895.8038"
       height="788.30426"
       id="rect11928" />
    <rect
       x="534.6991"
       y="791.32214"
       width="750.95343"
       height="225.03905"
       id="rect9035" />
    <rect
       x="346.76694"
       y="735.13861"
       width="1140.58"
       height="393.52835"
       id="rect5839" />
    <rect
       x="321.63174"
       y="770.76355"
       width="1213.4563"
       height="364.63898"
       id="rect4975" />
    <rect
       x="176.64183"
       y="739.35693"
       width="1531.4373"
       height="521.65448"
       id="rect2901" />
  </defs>
  <g
     inkscape:groupmode="layer"
     id="layer5"
     inkscape:label="Layer 4"
     transform="translate(-27.160435,-217.01372)"
     style="display:none">
    <rect
       style="fill:#916f6f;fill-opacity:1;stroke-width:0.226633"
       id="rect27384"
       width="303.45047"
       height="136.24303"
       x="27.031992"
       y="216.62018"
       ry="0.28388435" />
  </g>
  <g
     inkscape:groupmode="layer"
     id="layer2"
     inkscape:label="Layer 2"
     transform="translate(-27.160435,-217.01372)">
    <path
       style="fill:#f6d8c0;fill-opacity:1;stroke-width:1.23547"
       d="m 793.79186,251.4189 v -99.45563 h 24.70948 24.70947 v 7.40462 7.40463 l 8.07869,-5.53089 c 11.74101,-8.03821 18.941,-9.8986 38.25158,-9.88374 13.32673,0.0103 17.6387,0.50285 25.32721,2.89331 31.09439,9.66769 53.93497,32.29803 64.40272,63.80991 2.82915,8.51682 2.87893,9.59225 3.27385,70.73087 l 0.40102,62.08256 h -24.09806 -24.09807 l -0.36581,-57.7584 -0.36581,-57.7584 -2.98057,-7.41284 c -6.09496,-15.15852 -21.53044,-26.519 -38.78704,-28.54717 -14.56286,-1.71158 -31.74084,6.40347 -40.68523,19.22011 -8.29221,11.88211 -8.35448,12.44599 -8.35448,75.64914 v 56.60756 h -24.70947 -24.70948 z"
       id="path1003"
       transform="matrix(0.26458334,0,0,0.26458334,27.160435,217.01372)" />
    <path
       style="fill:#f6d8c0;fill-opacity:1;stroke-width:1.23547"
       d="m 578.81944,251.4189 v -99.45563 h 24.70947 24.70948 v 7.40462 7.40463 l 7.90056,-5.40894 c 12.32988,-8.44137 18.28088,-10.01805 37.81196,-10.01805 14.02904,0 18.15104,0.45968 25.94495,2.89331 30.92045,9.65486 52.68009,30.98666 63.8421,62.5868 l 3.49122,9.88379 0.37214,62.08255 0.37213,62.08256 h -24.08774 -24.08776 l -0.38535,-57.7584 c -0.38492,-57.69389 -0.38867,-57.76668 -3.35669,-65.17124 -4.10971,-10.2528 -15.3151,-21.41167 -25.4261,-25.32052 -9.38376,-3.62771 -23.18746,-4.01911 -32.12232,-0.91083 -8.13045,2.82844 -17.33871,9.96714 -22.43042,17.38918 -7.70045,11.22471 -7.83868,12.55025 -7.83868,75.16425 v 56.60756 h -24.70948 -24.70947 z"
       id="path1005"
       transform="matrix(0.26458334,0,0,0.26458334,27.160435,217.01372)" />
    <path
       style="fill:#f6d8c0;fill-opacity:1;stroke-width:1.23547"
       d="m 434.26901,350.94805 c -38.7076,-8.19588 -68.56214,-40.30359 -74.03018,-79.61734 -0.79073,-5.68519 -1.33372,-31.93546 -1.33372,-64.47826 v -54.88918 h 24.66447 24.66447 l 0.35387,59.6116 0.35388,59.61161 3.46882,7.06392 c 4.55742,9.28073 12.2044,16.98207 21.29327,21.44461 6.64605,3.26314 8.55903,3.61379 19.71496,3.61379 10.76714,0 13.24698,-0.41836 19.29812,-3.25569 13.626,-6.38909 22.91555,-18.58503 25.68925,-33.72656 0.83339,-4.54948 1.3429,-27.63545 1.3429,-60.84708 v -53.5162 h 24.09174 24.09173 v 99.45563 99.45564 h -24.09173 -24.09174 v -6.79511 c 0,-3.73731 -0.33696,-6.79511 -0.74882,-6.79511 -0.41185,0 -2.86948,1.67961 -5.4614,3.73244 -13.94633,11.0457 -36.30951,14.79288 -59.26989,9.93129 z"
       id="path1007"
       transform="matrix(0.26458334,0,0,0.26458334,27.160435,217.01372)" />
    <path
       style="fill:#f6d8c0;fill-opacity:1;stroke-width:1.23547"
       d="m 226.09169,351.29886 c -32.34205,-6.90038 -58.69899,-29.64978 -60.90088,-52.56521 l -0.56945,-5.92638 h 24.16567 c 23.29713,0 24.19464,0.0913 24.97159,2.5392 1.42083,4.47665 10.06709,9.55516 20.04855,11.77583 29.99828,6.67398 60.92581,-8.63538 46.52898,-23.03221 -5.60891,-5.60892 -15.00752,-8.23944 -34.50079,-9.65627 -23.75057,-1.72624 -38.24007,-5.85287 -52.04614,-14.82281 -26.41224,-17.16027 -35.87741,-43.7697 -24.1773,-67.96962 4.05466,-8.38645 16.73676,-21.35439 26.55833,-27.15692 15.75472,-9.30781 40.32806,-14.7912 59.63942,-13.30817 36.44146,2.79853 67.64388,23.08569 75.18824,48.88581 1.07924,3.69077 1.96226,7.99948 1.96226,9.57492 v 2.86445 h -24.12232 -24.12232 l -1.12815,-2.96728 c -1.36726,-3.59614 -7.75223,-8.51775 -13.63637,-10.51106 -7.68957,-2.60492 -21.19596,-3.7256 -30.59122,-2.53828 -22.64986,2.86237 -32.69006,13.96637 -21.86209,24.17846 5.9043,5.56847 14.14189,7.83887 33.30346,9.17894 29.21491,2.04314 47.02638,8.74262 63.06479,23.72073 7.07314,6.60553 10.25162,10.73822 13.83014,17.98205 4.33862,8.78251 4.64634,10.14753 4.64634,20.61101 0,10.24141 -0.36052,11.9379 -4.18996,19.71617 -9.67843,19.65864 -31.68151,34.41452 -59.23675,39.72581 -11.53227,2.22285 -31.66248,2.08223 -42.82403,-0.29917 z"
       id="path1009"
       transform="matrix(0.26458334,0,0,0.26458334,27.160435,217.01372)" />
  </g>
  <g
     inkscape:groupmode="layer"
     id="layer3"
     inkscape:label="Layer 3"
     transform="translate(-27.160435,-217.01372)">
    <path
       style="fill:#f6d8c0;fill-opacity:1;stroke-width:1.23547"
       d="m 115.38414,490.17014 c -3.96453,-20.34032 -15.10437,-40.87558 -31.237682,-57.58382 -19.859507,-20.56721 -40.121681,-31.85865 -66.849826,-37.2532 -6.115595,-1.23431 -9.5611241,-2.29106 -7.6567316,-2.34834 11.5538926,-0.34749 33.1812456,-7.80991 48.3857006,-16.69527 12.647854,-7.3913 35.799157,-30.63415 43.158679,-43.32934 7.25772,-12.51957 12.66738,-26.48217 14.57877,-37.62854 1.43403,-8.36261 3.46016,-11.78564 3.46016,-5.84573 0,10.14448 9.32257,34.18897 18.59087,47.94902 6.8255,10.13338 23.1403,26.99876 32.86474,33.97384 14.76257,10.58881 41.91428,21.15658 55.41287,21.56736 2.03853,0.062 -1.29725,1.13703 -7.41284,2.38887 -14.22853,2.91254 -23.46458,6.1801 -34.89345,12.34477 -23.36826,12.60467 -45.06892,35.801 -55.9566,59.81327 -3.56913,7.87154 -8.60559,25.58711 -8.60559,30.26985 0,5.84166 -1.98163,1.90698 -3.83907,-7.62274 z"
       id="path1001"
       transform="matrix(0.26458334,0,0,0.26458334,27.160435,217.01372)" />
  </g>
  <g
     inkscape:groupmode="layer"
     id="g918"
     inkscape:label="Layer 3 copy"
     transform="translate(212.89734,-289.36198)">
    <path
       style="fill:#f6d8c0;fill-opacity:1;stroke-width:1.23547"
       d="m 1023.7218,221.59801 c -6.4507,-38.39063 -33.77258,-73.28038 -71.02475,-90.69797 -9.99596,-4.6737 -27.05968,-9.71011 -33.71045,-9.94974 l -3.50058,-0.12613 3.70643,-1.01263 c 2.03853,-0.55694 8.32265,-2.16488 13.9647,-3.5732 43.53954,-10.86793 81.37495,-50.300536 89.68165,-93.467548 2.8519,-14.8201544 2.9235,-15.0608588 3.0978,-10.416055 0.2435,6.488531 4.4958,22.275641 8.7573,32.51211 10.5263,25.285272 33.6083,49.654734 59.3181,62.626603 9.9005,4.99533 22.766,9.44447 30.5669,10.57064 8.8364,1.27566 10.0577,2.52714 3.362,3.4449 -15.2101,2.08477 -36.2005,10.85627 -50.6078,21.14801 -9.3114,6.65152 -25.6663,23.66877 -32.0798,33.37894 -10.0336,15.19109 -15.4876,28.97979 -18.4745,46.70675 l -1.4343,8.51253 z"
       id="path999"
       transform="matrix(0.26458334,0,0,0.26458334,-212.89734,289.36198)" />
  </g>
</svg>
